<?xml version="1.0" encoding="utf8" standalone="no"?>
<svg viewBox="0 0 273.21875 136.493" xmlns="http://www.w3.org/2000/svg" xmlns:xlink="http://www.w3.org/1999/xlink">
<defs>
<linearGradient id="linearGradient6216">
<stop offset="0" stop-color="#2e3436"/>
<stop offset="1" stop-color="#2e3436" stop-opacity="0"/>
</linearGradient>
<linearGradient gradientUnits="userSpaceOnUse" id="linearGradient4528" x1="165.36682" x2="204.97337" y1="211.07299" y2="206.82299">
<stop offset="0" stop-color="#f4f3f2"/>
<stop offset="1" stop-color="#363637" stop-opacity=".4702"/>
</linearGradient>
<linearGradient gradientUnits="userSpaceOnUse" id="linearGradient6202" x1="327.93799" x2="327.42285" y1="184.74512" y2="197.11948">
<stop offset="0" stop-color="#555753"/>
<stop offset="1" stop-color="#555753" stop-opacity="0"/>
</linearGradient>
<linearGradient gradientUnits="userSpaceOnUse" id="linearGradient6210" x1="278.15625" x2="278.03125" y1="206.1875" y2="190.1875">
<stop offset="0" stop-color="#fff"/>
<stop offset="1" stop-color="#fff" stop-opacity="0"/>
</linearGradient>
<linearGradient gradientUnits="userSpaceOnUse" id="linearGradient6224" x1="254.55843" x2="248.19448" xlink:href="#linearGradient6216" y1="169.18581" y2="176.78722"/>
<linearGradient gradientTransform="matrix(-.48451,.87479,-.87479,-.48451,526.52273,105.92084)" gradientUnits="userSpaceOnUse" id="linearGradient6228" x1="254.20488" x2="247.84093" xlink:href="#linearGradient6216" y1="169.00903" y2="176.61044"/>
<pattern height="8.15625" id="pattern6179" patternTransform="translate(201.25,133.46875)" patternUnits="userSpaceOnUse" width="8.6875">
<path d="m1.9375.5c-.87814.74537-1.4375,1.85256-1.4375,3.09375 0,2.2425 1.82,4.0625 4.0625,4.0625 1.58189,0 2.95414-.92925 3.625-2.25-.70843.60132-1.62369,1-2.625,1-2.2425,0-4.0625-1.82-4.0625-4.0625 0-.66061.15734-1.2922.4375-1.84375z" fill="#eeeeec" opacity=".32394"/>
</pattern>
<pattern id="pattern6248" patternTransform="translate(201.25,133.46875)" xlink:href="#pattern6179"/>
<pattern id="pattern6184" patternTransform="translate(200.54289,132.40809)" xlink:href="#pattern6179"/>
</defs>
<g transform="translate(-102.52808,-133.46875)">
<path d="m165.62183,147.74299c-33.73506,0-61.09375,27.38994-61.09375,61.125s27.35869,61.09375 61.09375,61.09375c24.12208,0 42.78207-13.72761 54.90625-34.3125 0,0 36.35388,9.47015 37.53125,7.03125l6.57637-13.62286 5.81358,1.26979 12.88464-14.89265 12.12072,2.02031 2.47969,1.53791 4.6875-.21875 5.94686-4.36485 10.10041,1.01016 8.90467,8.50936 13.22873-2.98906 25.35058-5.00936 9.59375-12.875-8.59375-17.9375-113.78125-.375c0,0 1.08708-8.20605-.375-11.25-.78702-1.63851-4.35318-5.06314-7.82464.61486-4.31648,7.06016-24.01911,9.19764-24.01911,9.19764-9.68464-20.97641-30.92382-35.56251-55.53125-35.5625zm-20.4375,42.4375c9.89258,0 17.90625,8.31019 17.90625,18.5625s-8.01367,18.59375-17.90625,18.59375-17.9375-8.34144-17.9375-18.59375 8.04492-18.5625 17.9375-18.5625z" fill="#928f81"/>
<path d="m163.62183,145.74299c-33.73506,0-61.09375,27.38994-61.09375,61.125s27.35869,61.09375 61.09375,61.09375c24.12208,0 42.78207-13.72761 54.90625-34.3125 0,0 36.33716,9.50478 37.53125,7.03125l6.57637-13.62286 5.81358,1.26979 12.88464-14.89265 12.12072,2.02031 2.47969,1.53791 4.6875-.21875 5.94686-4.36485 10.10041,1.01016 8.90467,8.50936 13.22873-2.98906 25.35058-5.00936 9.59375-12.875-8.59375-17.9375-113.78125-.375c0,0 1.08708-8.20605-.375-11.25-1.57403-3.27703-31.84375,9.8125-31.84375,9.8125-9.68464-20.97641-30.92382-35.56251-55.53125-35.5625zm-20.4375,42.4375c9.89258,0 17.90625,8.31019 17.90625,18.5625s-8.01367,18.59375-17.90625,18.59375-17.9375-8.34144-17.9375-18.59375 8.04492-18.5625 17.9375-18.5625z" fill="#e2d7b9"/>
<path d="m164.46058,153.27611c-29.55303,0-53.5625,24.00947-53.5625,53.5625s24.00947,53.53126 53.5625,53.53125c15.83635-1e-005 30.07019-6.90307 39.875-17.84375v-71.40625c-9.8048-10.94068-24.03864-17.84375-39.875-17.84375zm-21.46875,34.84375c9.89258,0 17.90625,8.31019 17.90625,18.5625s-8.01367,18.59375-17.90625,18.59375-17.9375-8.34144-17.9375-18.59375 8.04492-18.5625 17.9375-18.5625z" fill="url(#pattern6184)" stroke="url(#linearGradient4528)" stroke-linecap="round" stroke-linejoin="bevel" stroke-width="1.27559"/>
<path d="m201.25,133.46875h8.6875v8.15625h-8.6875z" fill="url(#pattern6248)"/>
<path d="m250.65625,189.34375v9.1875h121.875l-4.40625-9.1875h-117.46875z" fill="url(#linearGradient6202)" stroke="url(#linearGradient6210)" stroke-linecap="round" stroke-linejoin="bevel"/>
<path d="m230.16325,178.55498c0,0 13.68292-7.34058 19.79899-7.42462 .67909-.00961 1.29497,1.09916 1.41422,1.76777 .23557,1.3208-1e-005,4.41942-1e-005,4.41942l-21.2132,1.23743z" fill="url(#linearGradient6224)" fill-rule="evenodd" opacity=".83803"/>
<path d="m259.13547,220.53032c0,0 1.04199,13.77621-1.84776,19.1672-.32062.59871-2.83895,2.35027-3.48162,2.13064-1.26956-.43386-5.86605-.89124-5.86605-.89124l11.19543-20.4066z" fill="url(#linearGradient6228)" fill-rule="evenodd" opacity=".83803"/>
</g>
</svg>
